<mxfile host="www.draw.io" modified="2020-01-14T03:14:04.591Z" agent="Mozilla/5.0 (Windows NT 10.0; Win64; x64) AppleWebKit/537.36 (KHTML, like Gecko) Chrome/79.0.3945.88 Safari/537.36" etag="lKO11oHpOgGVO-NnbNqh" version="12.5.1" type="github">
  <diagram id="D0ypwWDPsDsRMSo0AHxi" name="Page-1">
    <mxGraphModel dx="946" dy="565" grid="1" gridSize="10" guides="1" tooltips="1" connect="1" arrows="1" fold="1" page="1" pageScale="1" pageWidth="850" pageHeight="1100" math="0" shadow="0">
      <root>
        <mxCell id="0"/>
        <mxCell id="1" parent="0"/>
        <mxCell id="ab-WuYb2-cJW8UncNJUO-31" style="edgeStyle=orthogonalEdgeStyle;rounded=0;orthogonalLoop=1;jettySize=auto;html=1;exitX=0.5;exitY=0;exitDx=0;exitDy=0;entryX=0.5;entryY=1;entryDx=0;entryDy=0;endArrow=classic;endFill=1;" edge="1" parent="1" source="ab-WuYb2-cJW8UncNJUO-1" target="ab-WuYb2-cJW8UncNJUO-3">
          <mxGeometry relative="1" as="geometry"/>
        </mxCell>
        <mxCell id="ab-WuYb2-cJW8UncNJUO-1" value="12-bit&lt;br&gt;Magnetic Encoder" style="whiteSpace=wrap;html=1;aspect=fixed;" vertex="1" parent="1">
          <mxGeometry x="260" y="540" width="80" height="80" as="geometry"/>
        </mxCell>
        <mxCell id="ab-WuYb2-cJW8UncNJUO-3" value="STM32&lt;br&gt;Microcontroller" style="whiteSpace=wrap;html=1;aspect=fixed;" vertex="1" parent="1">
          <mxGeometry x="240" y="330" width="120" height="120" as="geometry"/>
        </mxCell>
        <mxCell id="ab-WuYb2-cJW8UncNJUO-25" style="edgeStyle=orthogonalEdgeStyle;rounded=0;orthogonalLoop=1;jettySize=auto;html=1;exitX=0.25;exitY=1;exitDx=0;exitDy=0;entryX=0.5;entryY=0;entryDx=0;entryDy=0;endArrow=classic;endFill=1;" edge="1" parent="1" source="ab-WuYb2-cJW8UncNJUO-8" target="ab-WuYb2-cJW8UncNJUO-24">
          <mxGeometry relative="1" as="geometry">
            <Array as="points">
              <mxPoint x="570" y="500"/>
            </Array>
          </mxGeometry>
        </mxCell>
        <mxCell id="ab-WuYb2-cJW8UncNJUO-8" value="TRI-STATE BUFFER&lt;br&gt;&lt;br&gt;&lt;br&gt;&lt;br&gt;&lt;br&gt;&lt;br&gt;&lt;br&gt;&lt;br&gt;&lt;br&gt;&lt;br&gt;&lt;br&gt;&lt;br&gt;" style="rounded=0;whiteSpace=wrap;html=1;" vertex="1" parent="1">
          <mxGeometry x="430" y="300" width="240" height="200" as="geometry"/>
        </mxCell>
        <mxCell id="ab-WuYb2-cJW8UncNJUO-20" style="edgeStyle=orthogonalEdgeStyle;rounded=0;orthogonalLoop=1;jettySize=auto;html=1;exitX=1;exitY=0.5;exitDx=0;exitDy=0;endArrow=none;endFill=0;" edge="1" parent="1" source="ab-WuYb2-cJW8UncNJUO-9">
          <mxGeometry relative="1" as="geometry">
            <mxPoint x="630" y="420" as="targetPoint"/>
          </mxGeometry>
        </mxCell>
        <mxCell id="ab-WuYb2-cJW8UncNJUO-9" value="" style="triangle;whiteSpace=wrap;html=1;" vertex="1" parent="1">
          <mxGeometry x="570" y="340" width="30" height="40" as="geometry"/>
        </mxCell>
        <mxCell id="ab-WuYb2-cJW8UncNJUO-14" value="RX" style="edgeStyle=orthogonalEdgeStyle;rounded=0;orthogonalLoop=1;jettySize=auto;html=1;exitX=1;exitY=0.5;exitDx=0;exitDy=0;entryX=1;entryY=0.75;entryDx=0;entryDy=0;" edge="1" parent="1" source="ab-WuYb2-cJW8UncNJUO-11" target="ab-WuYb2-cJW8UncNJUO-3">
          <mxGeometry relative="1" as="geometry"/>
        </mxCell>
        <mxCell id="ab-WuYb2-cJW8UncNJUO-19" value="DATA" style="edgeStyle=orthogonalEdgeStyle;rounded=0;orthogonalLoop=1;jettySize=auto;html=1;exitX=0;exitY=0.5;exitDx=0;exitDy=0;" edge="1" parent="1" source="ab-WuYb2-cJW8UncNJUO-11">
          <mxGeometry x="0.3352" relative="1" as="geometry">
            <mxPoint x="750" y="420.344827586207" as="targetPoint"/>
            <mxPoint as="offset"/>
          </mxGeometry>
        </mxCell>
        <mxCell id="ab-WuYb2-cJW8UncNJUO-11" value="" style="triangle;whiteSpace=wrap;html=1;direction=west;" vertex="1" parent="1">
          <mxGeometry x="570" y="400" width="30" height="40" as="geometry"/>
        </mxCell>
        <mxCell id="ab-WuYb2-cJW8UncNJUO-13" style="edgeStyle=orthogonalEdgeStyle;rounded=0;orthogonalLoop=1;jettySize=auto;html=1;exitX=1;exitY=0.5;exitDx=0;exitDy=0;entryX=0.5;entryY=0;entryDx=0;entryDy=0;" edge="1" parent="1" source="ab-WuYb2-cJW8UncNJUO-12" target="ab-WuYb2-cJW8UncNJUO-11">
          <mxGeometry relative="1" as="geometry">
            <Array as="points">
              <mxPoint x="585" y="470"/>
            </Array>
          </mxGeometry>
        </mxCell>
        <mxCell id="ab-WuYb2-cJW8UncNJUO-18" style="edgeStyle=orthogonalEdgeStyle;rounded=0;orthogonalLoop=1;jettySize=auto;html=1;exitX=0;exitY=0.5;exitDx=0;exitDy=0;entryX=0;entryY=0.5;entryDx=0;entryDy=0;" edge="1" parent="1" target="ab-WuYb2-cJW8UncNJUO-12">
          <mxGeometry relative="1" as="geometry">
            <mxPoint x="510" y="390" as="sourcePoint"/>
            <Array as="points">
              <mxPoint x="510" y="470"/>
            </Array>
          </mxGeometry>
        </mxCell>
        <mxCell id="ab-WuYb2-cJW8UncNJUO-12" value="" style="verticalLabelPosition=bottom;shadow=0;dashed=0;align=center;html=1;verticalAlign=top;shape=mxgraph.electrical.logic_gates.buffer2;negating=1;" vertex="1" parent="1">
          <mxGeometry x="530" y="450" width="40" height="40" as="geometry"/>
        </mxCell>
        <mxCell id="ab-WuYb2-cJW8UncNJUO-15" value="TX" style="edgeStyle=orthogonalEdgeStyle;rounded=0;orthogonalLoop=1;jettySize=auto;html=1;exitX=1;exitY=0.25;exitDx=0;exitDy=0;entryX=0;entryY=0.5;entryDx=0;entryDy=0;" edge="1" parent="1" source="ab-WuYb2-cJW8UncNJUO-3" target="ab-WuYb2-cJW8UncNJUO-9">
          <mxGeometry relative="1" as="geometry"/>
        </mxCell>
        <mxCell id="ab-WuYb2-cJW8UncNJUO-16" value="DIR" style="edgeStyle=orthogonalEdgeStyle;rounded=0;orthogonalLoop=1;jettySize=auto;html=1;exitX=1;exitY=0.5;exitDx=0;exitDy=0;entryX=0.5;entryY=1;entryDx=0;entryDy=0;" edge="1" parent="1" source="ab-WuYb2-cJW8UncNJUO-3" target="ab-WuYb2-cJW8UncNJUO-9">
          <mxGeometry x="0.886" y="120" relative="1" as="geometry">
            <Array as="points">
              <mxPoint x="585" y="390"/>
            </Array>
            <mxPoint as="offset"/>
          </mxGeometry>
        </mxCell>
        <mxCell id="ab-WuYb2-cJW8UncNJUO-22" style="edgeStyle=orthogonalEdgeStyle;rounded=0;orthogonalLoop=1;jettySize=auto;html=1;exitX=0.5;exitY=0;exitDx=0;exitDy=0;entryX=0;entryY=0.75;entryDx=0;entryDy=0;endArrow=classic;endFill=1;" edge="1" parent="1" source="ab-WuYb2-cJW8UncNJUO-21" target="ab-WuYb2-cJW8UncNJUO-3">
          <mxGeometry relative="1" as="geometry">
            <Array as="points">
              <mxPoint x="130" y="420"/>
            </Array>
          </mxGeometry>
        </mxCell>
        <mxCell id="ab-WuYb2-cJW8UncNJUO-23" value="5V" style="edgeStyle=orthogonalEdgeStyle;rounded=0;orthogonalLoop=1;jettySize=auto;html=1;endArrow=classic;endFill=1;entryX=0.5;entryY=1;entryDx=0;entryDy=0;" edge="1" parent="1" target="ab-WuYb2-cJW8UncNJUO-21">
          <mxGeometry relative="1" as="geometry">
            <mxPoint x="130" y="635" as="sourcePoint"/>
          </mxGeometry>
        </mxCell>
        <mxCell id="ab-WuYb2-cJW8UncNJUO-21" value="3V3&lt;br&gt;LINEAR REGULATOR&lt;br&gt;" style="rounded=0;whiteSpace=wrap;html=1;" vertex="1" parent="1">
          <mxGeometry x="90" y="505" width="80" height="60" as="geometry"/>
        </mxCell>
        <mxCell id="ab-WuYb2-cJW8UncNJUO-30" value="24V" style="edgeStyle=orthogonalEdgeStyle;rounded=0;orthogonalLoop=1;jettySize=auto;html=1;exitX=0.5;exitY=1;exitDx=0;exitDy=0;endArrow=classic;endFill=1;entryX=0.5;entryY=1;entryDx=0;entryDy=0;" edge="1" parent="1" target="ab-WuYb2-cJW8UncNJUO-24">
          <mxGeometry relative="1" as="geometry">
            <mxPoint x="570" y="650" as="sourcePoint"/>
          </mxGeometry>
        </mxCell>
        <mxCell id="ab-WuYb2-cJW8UncNJUO-32" style="edgeStyle=orthogonalEdgeStyle;rounded=0;orthogonalLoop=1;jettySize=auto;html=1;exitX=0;exitY=0.5;exitDx=0;exitDy=0;entryX=1;entryY=0.5;entryDx=0;entryDy=0;endArrow=classic;endFill=1;" edge="1" parent="1" source="ab-WuYb2-cJW8UncNJUO-24" target="ab-WuYb2-cJW8UncNJUO-28">
          <mxGeometry relative="1" as="geometry"/>
        </mxCell>
        <mxCell id="ab-WuYb2-cJW8UncNJUO-24" value="STEPPER CONTROLLER&lt;br&gt;DRV8825" style="rounded=0;whiteSpace=wrap;html=1;" vertex="1" parent="1">
          <mxGeometry x="510" y="550" width="120" height="60" as="geometry"/>
        </mxCell>
        <mxCell id="ab-WuYb2-cJW8UncNJUO-28" value="M" style="verticalLabelPosition=middle;shadow=0;dashed=0;align=center;html=1;verticalAlign=middle;strokeWidth=1;shape=ellipse;aspect=fixed;fontSize=35;" vertex="1" parent="1">
          <mxGeometry x="380" y="550" width="60" height="60" as="geometry"/>
        </mxCell>
      </root>
    </mxGraphModel>
  </diagram>
</mxfile>
